<?xml version="1.0" encoding="utf-8"?>
<!-- Generator: Adobe Illustrator 24.1.2, SVG Export Plug-In . SVG Version: 6.00 Build 0)  -->
<svg version="1.1" id="Layer_1" xmlns="http://www.w3.org/2000/svg" xmlns:xlink="http://www.w3.org/1999/xlink" x="0px" y="0px"
	 viewBox="0 0 85.28 81.1" enable-background="new 0 0 85.28 81.1" xml:space="preserve">
<path fill="#2CA6E0" d="M74.82,60.5c0,6-4.9,10.9-10.9,10.9h-3.2c0,0,0,4.9-0.1,7.7c-0.1,1.3-8.1-7.7-8.1-7.7h-32.7
	c-6,0-10.9-4.9-10.9-10.9V16.3c0-6,4.9-10.9,10.9-10.9h44.1c6,0,10.9,4.9,10.9,10.9C74.82,16.3,74.82,60.5,74.82,60.5z"/>
<g enable-background="new    ">
	<path fill="#FFFFFF" d="M29.72,27h-3.2v-5.7l-5-7.9h3.6l3,5l2.9-5h3.6l-5,7.9V27H29.72z"/>
	<path fill="#FFFFFF" d="M39.82,27c-1.5,0-2.9-0.5-4.2-1.7s-1.9-2.9-1.9-5.4c0-2,0.5-3.7,1.7-5.1c1.1-1.3,2.5-1.9,4.4-1.9
		c1.7,0,3.2,0.6,4.4,2s1.7,3,1.7,5.1c0,2.5-0.6,4.3-1.9,5.4S41.32,27,39.82,27z M39.82,24.8c2,0,3-1.6,3.2-4.8
		c0-1.5-0.3-2.6-0.9-3.5c-0.5-0.9-1.4-1.4-2.3-1.4c-1.9,0-2.9,1.6-3.2,4.8C36.62,22.9,37.72,24.6,39.82,24.8z"/>
	<path fill="#FFFFFF" d="M53.12,26.9c-1.7,0-3.1-0.5-4.1-1.6s-1.5-2.3-1.5-3.6V13h3.2v8.7c0,1.5,0.8,2.3,2.4,2.3
		c0.8,0,1.4-0.2,1.7-0.5c0.4-0.3,0.5-0.5,0.6-0.9s0.1-0.6,0.1-0.8V13h3.2v8.8c0,1.3-0.5,2.4-1.4,3.5
		C56.52,26.4,55.02,26.9,53.12,26.9z"/>
</g>
<g enable-background="new    ">
	<path fill="#FFFFFF" d="M30.32,44.3h-3.3l-4.8-8.3v8.4h-3.2V30.6h3.2l4.8,8.5v-8.5h3.2L30.32,44.3L30.32,44.3z"/>
	<path fill="#FFFFFF" d="M41.32,44.4h-8.5V30.9h8.3v2.7h-5.1v2.5h4.8v2.7h-4.8v2.8h5.3V44.4z"/>
	<path fill="#FFFFFF" d="M51.62,44.4h-8.5V30.9h8.3v2.7h-5.1v2.5h4.8v2.7h-4.8v2.8h5.3V44.4z"/>
	<path fill="#FFFFFF" d="M58.92,44.3h-5.5V30.8h5.5c1.5,0,2.8,0.5,4,1.7c1.3,1.2,1.9,2.8,1.9,5s-0.6,3.9-1.9,5.1
		C61.62,43.8,60.32,44.3,58.92,44.3z M58.92,41.4c0.7,0,1.5-0.4,2.1-1s1-1.6,1-2.9c0-1.3-0.4-2.2-1-2.9c-0.6-0.6-1.4-1-2.1-1h-2.3
		v7.8C56.62,41.4,58.92,41.4,58.92,41.4z"/>
</g>
<g enable-background="new    ">
	<path fill="#FFFFFF" d="M28.42,61.7h-3.2v-11h-3.7V48h10.6v2.7h-3.7V61.7L28.42,61.7z"/>
	<path fill="#FFFFFF" d="M44.32,61.7h-3.2v-5.6h-4.5v5.6h-3.2V48.2h3.2v5.3h4.5v-5.3h3.2V61.7z"/>
	<path fill="#FFFFFF" d="M49.92,61.8h-3.2V48.1h3.2V61.8z"/>
	<path fill="#FFFFFF" d="M55.52,62.2c-1.1,0-2.5-0.3-4-0.7l0.9-2.7c1.2,0.4,2.3,0.5,3.2,0.5c0.4,0,0.6,0,0.9-0.1
		c0.6-0.2,1-0.5,1-0.8v-0.3c0-0.2,0-0.3-0.1-0.4c-0.1-0.2-0.2-0.4-0.5-0.5c-0.4-0.2-1.1-0.6-2.3-1.3c-0.9-0.5-1.7-0.9-2.4-1.5
		c-0.6-0.5-0.9-1.4-0.9-2.5c0-1.4,0.5-2.4,1.6-3.1c0.9-0.5,1.8-0.8,3-0.8s2.4,0.2,3.6,0.6l-0.9,2.8c-1.1-0.3-1.9-0.5-2.6-0.5
		c-1.1,0-1.7,0.4-1.7,1c0,0.1,0,0.2,0.1,0.3c0.1,0.2,0.6,0.5,1.7,1.1c1.7,0.8,2.9,1.6,3.6,2.3c0.5,0.5,0.8,1.4,0.8,2.5
		c0,1.4-0.5,2.5-1.6,3.2C58.22,61.9,57.12,62.2,55.52,62.2z"/>
</g>
</svg>
