<?xml version="1.0" encoding="utf-8"?>
<!-- Generator: Adobe Illustrator 24.1.2, SVG Export Plug-In . SVG Version: 6.00 Build 0)  -->
<svg version="1.1" id="Layer_1" xmlns="http://www.w3.org/2000/svg" xmlns:xlink="http://www.w3.org/1999/xlink" x="0px" y="0px"
	 viewBox="0 0 222 81.1" style="enable-background:new 0 0 222 81.1;" xml:space="preserve">
<style type="text/css">
	.st0{enable-background:new    ;}
	.st1{fill:#FFFFFF;}
	.st2{fill:#2CA6E0;}
</style>
<g>
	<g class="st0">
		<path class="st1" d="M97.6,11.2v5.5c0,3-0.5,5.6-1.3,7.8c-0.9,2.3-2.1,3.9-3.7,5.2s-3.6,1.8-5.8,1.8v-2.6c1.7,0,3.3-0.5,4.6-1.5
			c1.3-1,2.2-2.4,2.9-4.2c0.6-1.8,1-4,1-6.5v-3.1h-8.4v-2.5H97.6z M104.1,22v10.8h-2.5V10.4h2.5v9h2.7V22H104.1z"/>
		<path class="st1" d="M107.6,21.8v-2.3h19.9v2.3H107.6z M114.2,18.1v-5.2h-5.5v-2.3h7.9v7.5H114.2z M109,32.6V24h17.2v8.6H109z
			 M123.8,26.2h-12.3v4.1h12.3V26.2z M123.8,18.1v-5.2h-6v-2.3h8.4v7.5H123.8z"/>
		<path class="st1" d="M146.9,20.6c-1.1,0.2-2.4,0.3-3.7,0.3h-8.3v-2.2h2.5v-5.6H135v-2.2h13.7v2.2h-2.5v5.4
			c1.3-0.1,2.4-0.5,3.3-0.9v2.2C148.9,20.2,148,20.4,146.9,20.6z M153.8,32.6h-17.5v-5.7h14.6V25h-14.6v-2h17v5.7h-14.6v2h15V32.6z
			 M143.8,18.7v-5.6h-4.1v5.6h2.2C142.8,18.7,143.4,18.7,143.8,18.7z M150.8,21.7V10.4h2.5v11.3H150.8z"/>
		<path class="st1" d="M176.2,31.8h-19.9v-2.5h4.5v-6c-1.1-0.5-2-1.4-2.6-2.4s-0.9-2.1-0.9-3.3c0-1.4,0.4-2.5,1.1-3.6
			c0.7-1,1.8-1.8,3.2-2.4c1.4-0.5,2.9-0.8,4.7-0.8s3.4,0.3,4.7,0.8c1.4,0.5,2.4,1.4,3.2,2.4c0.7,1,1.1,2.3,1.1,3.6
			c0,1.3-0.3,2.4-0.9,3.3s-1.5,1.7-2.6,2.4v6h4.5L176.2,31.8L176.2,31.8z M162.8,13.8c-1,0.4-1.7,0.9-2.3,1.5s-0.8,1.4-0.8,2.3
			c0,0.9,0.3,1.6,0.8,2.3c0.5,0.6,1.3,1.2,2.3,1.5c1,0.4,2.1,0.5,3.4,0.5s2.4-0.2,3.4-0.5c1-0.4,1.7-0.9,2.3-1.5
			c0.5-0.6,0.8-1.5,0.8-2.3c0-1.3-0.5-2.4-1.7-3.2c-1.2-0.8-2.7-1.2-4.6-1.2C164.9,13.3,163.8,13.5,162.8,13.8z M169.2,29.2V24
			c-0.8,0.2-1.8,0.4-3,0.4s-2.2-0.1-3-0.4v5.2H169.2z"/>
		<path class="st1" d="M177.8,14.8v-2.3h5.5V10h2.5v2.5h5.6v2.3H177.8z M180.3,24c-1.1-0.8-1.6-1.9-1.6-3.4s0.5-2.5,1.6-3.4
			c1.1-0.8,2.5-1.2,4.3-1.2s3.1,0.4,4.3,1.2c1.1,0.8,1.6,1.9,1.6,3.4s-0.5,2.5-1.6,3.4s-2.5,1.2-4.3,1.2
			C182.8,25.1,181.4,24.8,180.3,24z M196.5,30.1v2.5h-17.3v-6.2h2.5v3.7C181.7,30.1,196.5,30.1,196.5,30.1z M181.9,18.8
			c-0.6,0.5-1,1.1-1,1.8c0,0.7,0.4,1.4,1,1.8c0.6,0.5,1.5,0.7,2.5,0.7c1.1,0,1.9-0.3,2.5-0.7c0.6-0.5,1-1.1,1-1.8
			c0-0.7-0.4-1.3-1-1.8c-0.6-0.5-1.5-0.7-2.5-0.7C183.5,18,182.7,18.3,181.9,18.8z M198.7,19.1h-2.7v8.1h-2.5V10.4h2.5v6h2.7V19.1z"
			/>
	</g>
	<g class="st0">
		<path class="st1" d="M86,54.4v-2.5c1.5-0.5,2.5-1.5,3.3-3.2c0.6-1.7,1-3.9,1-6.5l2.4,0.1c0,1.7-0.1,3.4-0.4,4.7l4.6,4.9l-1.5,1.8
			l-3.9-4.2C90.3,52.4,88.4,54,86,54.4z M103,56.5c1.6,0.7,2.5,1.8,2.5,3.5s-0.8,2.7-2.5,3.4c-1.6,0.7-3.8,1.1-6.5,1.1
			c-2.6,0-4.8-0.4-6.5-1.1s-2.5-1.8-2.5-3.4s0.8-2.7,2.5-3.5c1.6-0.7,3.8-1.1,6.5-1.1C99.2,55.5,101.4,55.8,103,56.5z M101.1,61.6
			c1.2-0.4,1.8-0.9,1.8-1.6c0-0.8-0.6-1.4-1.8-1.7c-1.2-0.4-2.7-0.5-4.6-0.5c-1.8,0-3.4,0.2-4.6,0.5c-1.2,0.4-1.8,0.9-1.8,1.7
			c0,0.7,0.6,1.4,1.8,1.6c1.2,0.3,2.7,0.5,4.6,0.5C98.4,62.2,99.9,62,101.1,61.6z M97.4,54.4V42.1h2.3v4h3.2v-4.2h2.4V55h-2.4v-6.4
			h-3.2v5.6L97.4,54.4L97.4,54.4z"/>
		<path class="st1" d="M119.1,54.7c-1.2,0.2-2.5,0.2-3.9,0.2h-7.6v-1.8h5.5v-1.4c-1.5-0.1-2.5-0.4-3.3-0.9c-0.8-0.5-1.2-1.2-1.2-2
			c0-0.9,0.5-1.6,1.5-2.2c1-0.5,2.5-0.8,4.2-0.8c1.7,0,3.2,0.3,4.2,0.8c1,0.5,1.5,1.3,1.5,2.2c0,0.8-0.4,1.5-1.2,2s-1.9,0.8-3.4,0.9
			v1.4c3,0,5.1-0.4,6.2-0.9V54C121.1,54.4,120.2,54.5,119.1,54.7z M107.6,45v-1.8h5.4v-1.8h2.5v1.8h5.5V45H107.6z M126.3,62.5v1.7
			h-17.2v-4.7h14.3V58H109v-1.6h16.7V61h-14.3v1.5C111.5,62.5,126.3,62.5,126.3,62.5z M111.7,49.7c0.6,0.3,1.5,0.4,2.5,0.4
			c1.1,0,1.9-0.1,2.5-0.4c0.6-0.3,0.9-0.5,0.9-0.9s-0.3-0.6-0.9-0.9c-0.6-0.2-1.5-0.4-2.5-0.4c-1.1,0-1.9,0.1-2.5,0.4
			c-0.6,0.2-0.9,0.5-0.9,0.9C110.8,49.2,111.2,49.5,111.7,49.7z M128.5,49.1h-2.7v6.1h-2.5V42h2.5v4.6h2.7V49.1z"/>
		<path class="st1" d="M149.2,63.4h-19.9v-2.5h8.7v-5.3h-7.4V42.8h17.3v2.5H133V53h15v2.5h-7.6v5.3h8.7L149.2,63.4L149.2,63.4z"/>
		<path class="st1" d="M161.9,57.2v7.7h-2.5v-7.7h-8.6v-2.6h19.9v2.6H161.9z M152.2,45.1v-2.5h17.2v10.2h-2.5v-7.6H152.2z"/>
		<path class="st1" d="M192.4,63.4h-19.9v-2.6h8.7v-5.3h-7.4V42.7h17.3v12.7h-7.5v5.3h8.7V63.4L192.4,63.4z M188.6,53v-7.6h-12.4V53
			C176.2,53,188.6,53,188.6,53z"/>
		<path class="st1" d="M194,54.4v-2.2H214v2.2H194z M210.3,42.9c1.6,0.7,2.5,1.8,2.5,3.3c0,1.5-0.8,2.5-2.5,3.3s-3.7,1.1-6.4,1.1
			c-2.6,0-4.7-0.4-6.4-1.1s-2.5-1.8-2.5-3.3c0-1.5,0.8-2.5,2.5-3.3c1.6-0.7,3.7-1.1,6.4-1.1C206.6,41.8,208.7,42.2,210.3,42.9z
			 M195.4,64.2v-7.6h17.2v7.6H195.4z M199.6,44.5c-1.2,0.4-1.7,0.9-1.7,1.6c0,0.7,0.5,1.3,1.7,1.6c1.2,0.4,2.6,0.5,4.5,0.5
			c1.8,0,3.3-0.2,4.5-0.5c1.2-0.4,1.7-0.9,1.7-1.6c0-0.7-0.5-1.3-1.7-1.6c-1.2-0.4-2.6-0.5-4.5-0.5C202.2,44,200.7,44.2,199.6,44.5z
			 M210.1,58.7h-12.3V62h12.3V58.7z"/>
	</g>
</g>
<path class="st2" d="M77.2,60.5c0,6-4.9,10.9-10.9,10.9h-3.2c0,0,0,4.9-0.1,7.7c-0.1,1.3-8.1-7.7-8.1-7.7H22.2
	c-6,0-10.9-4.9-10.9-10.9V16.3c0-6,4.9-10.9,10.9-10.9h44.1c6,0,10.9,4.9,10.9,10.9V60.5z"/>
<g class="st0">
	<path class="st1" d="M32.1,27h-3.2v-5.7l-5-7.9h3.6l3,5l2.9-5h3.6l-5,7.9V27z"/>
	<path class="st1" d="M42.2,27c-1.5,0-2.9-0.5-4.2-1.7s-1.9-2.9-1.9-5.4c0-2,0.5-3.7,1.7-5.1c1.1-1.3,2.5-1.9,4.4-1.9
		c1.7,0,3.2,0.6,4.4,2c1.2,1.4,1.7,3,1.7,5.1c0,2.5-0.6,4.3-1.9,5.4S43.7,27,42.2,27z M42.2,24.8c2,0,3-1.6,3.2-4.8
		c0-1.5-0.3-2.6-0.9-3.5c-0.5-0.9-1.4-1.4-2.3-1.4c-1.9,0-2.9,1.6-3.2,4.8C39,22.9,40.1,24.6,42.2,24.8z"/>
	<path class="st1" d="M55.5,26.9c-1.7,0-3.1-0.5-4.1-1.6c-1-1.1-1.5-2.3-1.5-3.6V13h3.2v8.7c0,1.5,0.8,2.3,2.4,2.3
		c0.8,0,1.4-0.2,1.7-0.5c0.4-0.3,0.5-0.5,0.6-0.9c0.1-0.4,0.1-0.6,0.1-0.8V13h3.2v8.8c0,1.3-0.5,2.4-1.4,3.5
		C58.9,26.4,57.4,26.9,55.5,26.9z"/>
</g>
<g class="st0">
	<path class="st1" d="M32.7,44.3h-3.3L24.6,36v8.4h-3.2V30.6h3.2l4.8,8.5v-8.5h3.2L32.7,44.3L32.7,44.3z"/>
	<path class="st1" d="M43.7,44.4h-8.5V30.9h8.3v2.7h-5.1v2.5h4.8v2.7h-4.8v2.8h5.3L43.7,44.4z"/>
	<path class="st1" d="M54,44.4h-8.5V30.9h8.3v2.7h-5.1v2.5h4.8v2.7h-4.8v2.8H54V44.4z"/>
	<path class="st1" d="M61.3,44.3h-5.5V30.8h5.5c1.5,0,2.8,0.5,4,1.7c1.3,1.2,1.9,2.8,1.9,5c0,2.2-0.6,3.9-1.9,5.1
		C64,43.8,62.7,44.3,61.3,44.3z M61.3,41.4c0.7,0,1.5-0.4,2.1-1c0.6-0.6,1-1.6,1-2.9c0-1.3-0.4-2.2-1-2.9c-0.6-0.6-1.4-1-2.1-1H59
		v7.8H61.3z"/>
</g>
<g class="st0">
	<path class="st1" d="M30.8,61.7h-3.2v-11h-3.7V48h10.6v2.7h-3.7L30.8,61.7L30.8,61.7z"/>
	<path class="st1" d="M46.7,61.7h-3.2v-5.6H39v5.6h-3.2V48.2H39v5.3h4.5v-5.3h3.2V61.7z"/>
	<path class="st1" d="M52.3,61.8h-3.2V48.1h3.2V61.8z"/>
	<path class="st1" d="M57.9,62.2c-1.1,0-2.5-0.3-4-0.7l0.9-2.7c1.2,0.4,2.3,0.5,3.2,0.5c0.4,0,0.6,0,0.9-0.1c0.6-0.2,1-0.5,1-0.8
		v-0.3c0-0.2,0-0.3-0.1-0.4c-0.1-0.2-0.2-0.4-0.5-0.5c-0.4-0.2-1.1-0.6-2.3-1.3c-0.9-0.5-1.7-0.9-2.4-1.5c-0.6-0.5-0.9-1.4-0.9-2.5
		c0-1.4,0.5-2.4,1.6-3.1c0.9-0.5,1.8-0.8,3-0.8c1.2,0,2.4,0.2,3.6,0.6L61,51.4c-1.1-0.3-1.9-0.5-2.6-0.5c-1.1,0-1.7,0.4-1.7,1
		c0,0.1,0,0.2,0.1,0.3c0.1,0.2,0.6,0.5,1.7,1.1c1.7,0.8,2.9,1.6,3.6,2.3c0.5,0.5,0.8,1.4,0.8,2.5c0,1.4-0.5,2.5-1.6,3.2
		C60.6,61.9,59.5,62.2,57.9,62.2z"/>
</g>
</svg>
