<?xml version="1.0" encoding="utf-8"?>
<!-- Generator: Adobe Illustrator 24.1.2, SVG Export Plug-In . SVG Version: 6.00 Build 0)  -->
<svg version="1.1" id="Layer_1" xmlns="http://www.w3.org/2000/svg" xmlns:xlink="http://www.w3.org/1999/xlink" x="0px" y="0px"
	 viewBox="0 0 222 81.1" style="enable-background:new 0 0 222 81.1;" xml:space="preserve">
<style type="text/css">
	.st0{enable-background:new    ;}
	.st1{fill:#0B4D5D;}
	.st2{fill:#FFFFFF;}
</style>
<g>
	<g class="st0">
		<path class="st1" d="M91.3,6.4v6c0,3.3-0.5,6.1-1.4,8.6c-1,2.5-2.3,4.3-4.1,5.7s-3.9,2-6.4,2v-2.9c1.9,0,3.6-0.5,5-1.6
			c1.4-1.1,2.4-2.6,3.2-4.6c0.7-2,1.1-4.4,1.1-7.1V9.1h-9.2V6.4H91.3z M98.4,18.3v11.9h-2.7V5.5h2.7v9.9h3v2.9H98.4z"/>
		<path class="st1" d="M102.3,18v-2.5h21.9V18H102.3z M109.5,14V8.3h-6V5.8h8.7V14H109.5z M103.8,29.9v-9.4h18.9v9.4H103.8z
			 M120,22.9h-13.5v4.5H120V22.9z M120,14V8.3h-6.6V5.8h9.2V14H120z"/>
		<path class="st1" d="M145.4,16.7c-1.2,0.2-2.6,0.3-4.1,0.3h-9.1v-2.4h2.8V8.5h-2.7V6.1h15v2.4h-2.7v5.9c1.4-0.1,2.6-0.5,3.6-1v2.4
			C147.6,16.3,146.6,16.5,145.4,16.7z M153,29.9h-19.2v-6.3h16v-2.1h-16v-2.2h18.7v6.3h-16v2.2H153V29.9z M142,14.6V8.5h-4.5v6.1
			h2.4C140.9,14.6,141.6,14.6,142,14.6z M149.7,17.9V5.5h2.7v12.4H149.7z"/>
		<path class="st1" d="M177.6,29h-21.9v-2.8h4.9v-6.6c-1.2-0.6-2.2-1.5-2.9-2.6c-0.7-1.1-1-2.3-1-3.6c0-1.5,0.4-2.8,1.2-4
			c0.8-1.1,2-2,3.5-2.6c1.5-0.6,3.2-0.9,5.2-0.9s3.7,0.3,5.2,0.9c1.5,0.6,2.6,1.5,3.5,2.6c0.8,1.1,1.2,2.5,1.2,4
			c0,1.4-0.3,2.6-1,3.6s-1.6,1.9-2.9,2.6v6.6h4.9V29z M162.9,9.3c-1.1,0.4-1.9,1-2.5,1.7c-0.6,0.7-0.9,1.5-0.9,2.5s0.3,1.8,0.9,2.5
			c0.6,0.7,1.4,1.3,2.5,1.7c1.1,0.4,2.3,0.6,3.7,0.6c1.4,0,2.6-0.2,3.7-0.6c1.1-0.4,1.9-1,2.5-1.7c0.6-0.7,0.9-1.6,0.9-2.5
			c0-1.4-0.6-2.6-1.9-3.5c-1.3-0.9-3-1.3-5.1-1.3C165.2,8.7,164,8.9,162.9,9.3z M169.9,26.2v-5.7c-0.9,0.2-2,0.4-3.3,0.4
			c-1.3,0-2.4-0.1-3.3-0.4v5.7H169.9z"/>
		<path class="st1" d="M179.4,10.3V7.8h6V5.1h2.8v2.7h6.1v2.5H179.4z M182.1,20.4c-1.2-0.9-1.8-2.1-1.8-3.7c0-1.6,0.6-2.8,1.8-3.7
			c1.2-0.9,2.8-1.3,4.7-1.3c1.9,0,3.4,0.4,4.7,1.3c1.2,0.9,1.8,2.1,1.8,3.7c0,1.6-0.6,2.8-1.8,3.7c-1.2,0.9-2.8,1.3-4.7,1.3
			C184.9,21.7,183.3,21.3,182.1,20.4z M199.9,27.2v2.7h-19v-6.8h2.8v4.1H199.9z M183.9,14.7c-0.7,0.5-1.1,1.2-1.1,2
			c0,0.8,0.4,1.5,1.1,2c0.7,0.5,1.7,0.8,2.8,0.8c1.2,0,2.1-0.3,2.8-0.8c0.7-0.5,1.1-1.2,1.1-2c0-0.8-0.4-1.4-1.1-2
			c-0.7-0.5-1.7-0.8-2.8-0.8C185.6,13.9,184.7,14.2,183.9,14.7z M202.3,15.1h-3V24h-2.7V5.5h2.7v6.6h3V15.1z"/>
	</g>
	<g class="st0">
		<path class="st1" d="M78.5,53.9v-2.8c1.6-0.5,2.8-1.6,3.6-3.5c0.7-1.9,1.1-4.3,1.1-7.1l2.6,0.1c0,1.9-0.1,3.7-0.4,5.2l5.1,5.4
			l-1.7,2l-4.3-4.6C83.2,51.6,81.2,53.4,78.5,53.9z M97.2,56.2c1.8,0.8,2.7,2,2.7,3.8s-0.9,3-2.7,3.7c-1.8,0.8-4.2,1.2-7.1,1.2
			c-2.9,0-5.3-0.4-7.1-1.2c-1.8-0.8-2.7-2-2.7-3.7s0.9-3,2.7-3.8c1.8-0.8,4.2-1.2,7.1-1.2C93,55.1,95.4,55.4,97.2,56.2z M95.1,61.8
			c1.3-0.4,2-1,2-1.8c0-0.9-0.7-1.5-2-1.9c-1.3-0.4-3-0.6-5-0.6s-3.7,0.2-5,0.6c-1.3,0.4-2,1-2,1.9c0,0.8,0.7,1.5,2,1.8s3,0.6,5,0.6
			S93.8,62.2,95.1,61.8z M91,53.8V40.3h2.5v4.4h3.5v-4.6h2.6v14.4h-2.6v-7h-3.5v6.2H91z"/>
		<path class="st1" d="M114.9,54.2c-1.3,0.2-2.7,0.2-4.3,0.2h-8.3v-2h6v-1.5c-1.6-0.1-2.8-0.4-3.6-1c-0.9-0.6-1.3-1.3-1.3-2.2
			c0-1,0.6-1.8,1.7-2.4s2.7-0.9,4.6-0.9c1.9,0,3.5,0.3,4.6,0.9c1.1,0.6,1.7,1.4,1.7,2.4c0,0.9-0.4,1.6-1.3,2.2
			c-0.9,0.6-2.1,0.9-3.7,1v1.5c3.3,0,5.6-0.4,6.8-1v2C117.1,53.8,116.1,54,114.9,54.2z M102.3,43.5v-2h5.9v-2h2.8v2h6v2H102.3z
			 M122.8,62.7v1.9h-18.9v-5.2h15.7v-1.6h-15.8V56h18.4v5.1h-15.7v1.6H122.8z M106.8,48.7c0.7,0.3,1.6,0.4,2.8,0.4
			c1.2,0,2.1-0.1,2.8-0.4c0.7-0.3,1-0.6,1-1c0-0.4-0.3-0.7-1-1c-0.7-0.2-1.6-0.4-2.8-0.4c-1.2,0-2.1,0.1-2.8,0.4c-0.7,0.2-1,0.6-1,1
			C105.8,48.1,106.2,48.5,106.8,48.7z M125.2,48h-3v6.7h-2.7V40.2h2.7v5h3V48z"/>
		<path class="st1" d="M147.9,63.7H126v-2.8h9.6v-5.8h-8.1v-14h19v2.8h-16.3v8.4h16.5v2.8h-8.4v5.8h9.6V63.7z"/>
		<path class="st1" d="M161.9,56.9v8.5h-2.8v-8.5h-9.4v-2.9h21.9v2.9H161.9z M151.2,43.6v-2.8h18.9V52h-2.8v-8.4H151.2z"/>
		<path class="st1" d="M195.4,63.7h-21.9v-2.9h9.6v-5.8h-8.1v-14h19v14h-8.2v5.8h9.6V63.7z M191.2,52.3v-8.4h-13.6v8.4H191.2z"/>
		<path class="st1" d="M197.2,53.9v-2.4h21.9v2.4H197.2z M215.1,41.2c1.8,0.8,2.7,2,2.7,3.6s-0.9,2.8-2.7,3.6s-4.1,1.2-7,1.2
			c-2.9,0-5.2-0.4-7-1.2s-2.7-2-2.7-3.6s0.9-2.8,2.7-3.6c1.8-0.8,4.1-1.2,7-1.2C211,40,213.3,40.4,215.1,41.2z M198.7,64.6v-8.4
			h18.9v8.4H198.7z M203.3,43c-1.3,0.4-1.9,1-1.9,1.8c0,0.8,0.6,1.4,1.9,1.8c1.3,0.4,2.9,0.6,4.9,0.6c2,0,3.6-0.2,4.9-0.6
			c1.3-0.4,1.9-1,1.9-1.8c0-0.8-0.6-1.4-1.9-1.8c-1.3-0.4-2.9-0.6-4.9-0.6S204.5,42.6,203.3,43z M214.9,58.6h-13.5v3.6h13.5V58.6z"
			/>
	</g>
</g>
<path class="st1" d="M72.5,60.5c0,6.6-5.4,12-12,12H57c0,0,0,5.4-0.1,8.5c-0.1,1.4-8.9-8.5-8.9-8.5H12c-6.6,0-12-5.4-12-12V12
	C0,5.4,5.4,0,12,0h48.5c6.6,0,12,5.4,12,12V60.5z"/>
<g class="st0">
	<path class="st2" d="M22.9,23.7h-3.5v-6.3l-5.5-8.7h4l3.3,5.5l3.2-5.5h4l-5.5,8.7V23.7z"/>
	<path class="st2" d="M34,23.8c-1.7,0-3.2-0.6-4.6-1.9s-2.1-3.2-2.1-5.9c0-2.2,0.6-4.1,1.9-5.6C30.4,9,32,8.3,34,8.3
		c1.9,0,3.5,0.7,4.8,2.2c1.3,1.5,1.9,3.3,1.9,5.6c0,2.7-0.7,4.7-2.1,5.9C37.2,23.2,35.6,23.8,34,23.8z M34,21.3
		c2.2,0,3.3-1.8,3.5-5.3c0-1.6-0.3-2.9-1-3.8c-0.6-1-1.5-1.5-2.5-1.5c-2.1,0-3.2,1.8-3.5,5.3C30.5,19.3,31.7,21.1,34,21.3z"/>
	<path class="st2" d="M48.6,23.6c-1.9,0-3.4-0.6-4.5-1.8c-1.1-1.2-1.6-2.5-1.6-3.9V8.4h3.5V18c0,1.7,0.9,2.5,2.6,2.5
		c0.9,0,1.5-0.2,1.9-0.5c0.4-0.3,0.6-0.6,0.7-1c0.1-0.4,0.1-0.7,0.1-0.9V8.4h3.5v9.7c0,1.4-0.5,2.6-1.5,3.8S50.7,23.6,48.6,23.6z"/>
</g>
<g class="st0">
	<path class="st2" d="M23.6,42.8H20l-5.3-9.2v9.2h-3.5V27.7h3.5l5.3,9.3v-9.3h3.5V42.8z"/>
	<path class="st2" d="M35.6,42.9h-9.3V28h9.1v3h-5.6v2.8h5.3v3h-5.3v3.1h5.8L35.6,42.9z"/>
	<path class="st2" d="M47,42.9h-9.3V28h9.1v3h-5.6v2.8h5.3v3h-5.3v3.1H47L47,42.9z"/>
	<path class="st2" d="M55,42.8h-6V27.9h6c1.6,0,3.1,0.6,4.4,1.9c1.4,1.3,2.1,3.1,2.1,5.5s-0.7,4.3-2.1,5.6
		C58,42.2,56.5,42.8,55,42.8z M55,39.6c0.8,0,1.6-0.4,2.3-1.1c0.7-0.7,1.1-1.8,1.1-3.2c0-1.4-0.4-2.4-1.1-3.2
		c-0.7-0.7-1.5-1.1-2.3-1.1h-2.5v8.6H55z"/>
</g>
<g class="st0">
	<path class="st2" d="M21.5,61.9H18V49.8h-4.1v-3h11.6v3h-4.1V61.9z"/>
	<path class="st2" d="M38.9,61.9h-3.5v-6.2h-4.9v6.2H27V47h3.5v5.8h4.9V47h3.5V61.9z"/>
	<path class="st2" d="M45.1,62h-3.5V46.9h3.5V62z"/>
	<path class="st2" d="M51.3,62.4c-1.2,0-2.7-0.3-4.4-0.8l1-3c1.3,0.4,2.5,0.6,3.5,0.6c0.4,0,0.7,0,1-0.1c0.7-0.2,1.1-0.5,1.1-0.9
		l0-0.3c0-0.2,0-0.3-0.1-0.4c-0.1-0.2-0.2-0.4-0.6-0.6c-0.4-0.2-1.2-0.7-2.5-1.4c-1-0.5-1.9-1-2.6-1.7c-0.7-0.6-1-1.5-1-2.7
		c0-1.5,0.6-2.6,1.8-3.4c1-0.6,2-0.9,3.3-0.9c1.3,0,2.6,0.2,3.9,0.7l-1,3c-1.2-0.3-2.1-0.5-2.9-0.5c-1.2,0-1.9,0.4-1.9,1.1
		c0,0.1,0,0.2,0.1,0.3c0.1,0.2,0.7,0.6,1.9,1.2c1.9,0.9,3.2,1.8,3.9,2.5c0.6,0.6,0.9,1.5,0.9,2.7c0,1.5-0.6,2.7-1.8,3.5
		C54.2,62.1,53,62.4,51.3,62.4z"/>
</g>
</svg>
